<svg width="32" height="32" viewBox="0 0 32 32" fill="none" xmlns="http://www.w3.org/2000/svg">
<g clip-path="url(#clip0_3_6587)">
<g clip-path="url(#clip1_3_6587)">
<g clip-path="url(#clip2_3_6587)">
<g clip-path="url(#clip3_3_6587)">
<path d="M10.6714 16.3351C11.0654 16.2535 11.4771 16.0748 11.8654 15.7944C12.982 14.9867 13.4776 13.6605 12.9712 12.8307C12.4206 11.9281 10.9144 11.9888 9.75699 13.016C8.65019 13.9717 8.41406 14.9702 8.41406 16.0196C8.41406 16.7611 8.65123 18.0851 10.1 19.235C10.7841 18.7064 11.5995 18.2716 12.5252 17.9572L12.5375 17.9527C11.8262 17.6563 10.8991 17.0713 10.6714 16.3351ZM10.4928 13.7829C10.4928 13.4729 10.7399 13.2236 11.0445 13.2236C11.3489 13.2236 11.5962 13.474 11.5962 13.7841C11.5962 14.0941 11.3489 14.3435 11.0445 14.3435C10.7399 14.3435 10.4928 14.093 10.4928 13.7829Z" fill="white"/>
</g>
</g>
<g clip-path="url(#clip4_3_6587)">
<g clip-path="url(#clip5_3_6587)">
<path d="M23.6074 16.0203C23.6041 14.9698 23.3691 13.9713 22.2613 13.0157C21.1048 11.9895 19.5976 11.9266 19.047 12.8304C18.5416 13.6601 19.0359 14.9864 20.1525 15.7941C20.541 16.0744 20.9526 16.2531 21.3465 16.3347C21.2097 16.7772 20.7937 17.2274 20.1593 17.607C19.2869 18.1276 18.8157 18.192 13.2341 20.0455C11.1686 20.7473 9.93945 22.1419 9.93945 23.7761C9.93945 24.9402 10.5341 25.8384 11.3605 26.4961C11.8803 25.9609 12.5292 25.4964 13.2872 25.1245C12.4144 24.6832 12.1451 24.3488 12.1451 23.7761C12.1451 22.8309 14.0344 22.2905 14.906 22.003V24.3952L17.1128 23.4109V22.0041C17.9858 22.2932 19.8702 22.8329 19.8702 23.7761C19.8702 25.3454 15.3767 26.2708 13.4649 27.5895C12.537 28.2328 12.038 29.0505 12.038 30.0115C12.038 30.5632 12.1021 31.2474 13.0709 31.9271C13.3456 32.1465 13.7272 31.826 13.5488 31.5176C12.9087 30.2366 13.5884 29.5966 14.9081 29.0427V30.8942C14.9081 31.5033 15.4025 31.9976 16.0115 31.9976C16.6206 31.9976 17.115 31.5033 17.115 30.8942V29.0438C18.3827 29.5756 19.1806 30.327 18.471 31.5176C18.2952 31.82 18.6697 32.1492 18.9477 31.9271C19.8856 31.2164 19.9596 30.6073 19.9596 30.0259C19.9596 29.1311 19.4697 28.2627 18.5406 27.5973C20.4186 26.9187 22.0803 25.7766 22.0803 23.7783C22.0803 22.398 21.2032 21.1886 19.6871 20.4229C20.3953 20.168 20.7517 19.997 21.2251 19.7145C23.2985 18.4753 23.6074 16.8677 23.6074 16.0203ZM20.9748 14.3431C20.6701 14.3431 20.4231 14.0926 20.4231 13.7825C20.4231 13.4725 20.6701 13.222 20.9748 13.222C21.2792 13.222 21.5265 13.4725 21.5265 13.7825C21.5265 14.0926 21.2792 14.3431 20.9748 14.3431Z" fill="white"/>
</g>
</g>
<g clip-path="url(#clip6_3_6587)">
<g clip-path="url(#clip7_3_6587)">
<path d="M31.4476 2.20896H23.8908C22.4084 2.20896 21.296 2.86425 20.339 3.82132C19.2993 4.86101 18.7587 7.17218 17.1032 7.17218V4.10759C17.7601 3.72533 18.2066 3.0217 18.2066 2.20683C18.2066 0.988037 17.2186 0 15.9998 0C14.7809 0 13.793 0.988037 13.793 2.20683C13.793 3.02163 14.2394 3.72526 14.8964 4.10759V17.2579C15.5774 17.0406 16.3248 16.8012 17.1032 16.5513V11.0242C17.5819 10.784 17.9682 10.3957 18.2051 9.91506C18.5889 10.571 19.3185 11.0363 20.1318 11.0363C20.9567 11.0363 21.6673 10.5783 22.0459 9.90802C23.3386 11.2007 25.7413 11.2256 27.0339 9.93299L25.1588 8.05788L26.019 8.41421C27.708 9.11384 29.6444 8.31173 30.3441 6.62268L27.6803 5.51927C30.2609 5.5192 31.4476 3.89987 31.4476 2.20896Z" fill="white"/>
</g>
</g>
<g clip-path="url(#clip8_3_6587)">
<g clip-path="url(#clip9_3_6587)">
<path d="M11.6613 3.82135C10.7043 2.86427 9.59189 2.20898 8.10946 2.20898H0.552734C0.552734 3.89983 1.73939 5.51922 4.31999 5.51922L1.65615 6.62263C2.35585 8.31168 4.29227 9.11373 5.98132 8.41416L6.8415 8.05783L4.96638 9.93294C6.25903 11.2257 8.66171 11.2008 9.95436 9.90798C10.333 10.5783 11.0436 11.0363 11.8685 11.0363C11.8766 11.0363 11.8848 11.0362 11.8929 11.0361C12.9711 11.0239 13.7952 10.05 13.7952 8.9718V6.75187C12.9255 6.03831 12.4274 4.58739 11.6613 3.82135Z" fill="white"/>
</g>
</g>
</g>
</g>
<defs>
<clipPath id="clip0_3_6587">
<rect width="32" height="32" fill="white"/>
</clipPath>
<clipPath id="clip1_3_6587">
<rect width="32" height="32" fill="white"/>
</clipPath>
<clipPath id="clip2_3_6587">
<rect width="4.75568" height="7.03818" fill="white" transform="translate(8.41406 12.1968)"/>
</clipPath>
<clipPath id="clip3_3_6587">
<rect width="4.75568" height="7.03818" fill="white" transform="translate(8.41406 12.1968)"/>
</clipPath>
<clipPath id="clip4_3_6587">
<rect width="13.668" height="19.8036" fill="white" transform="translate(9.93945 12.1963)"/>
</clipPath>
<clipPath id="clip5_3_6587">
<rect width="13.668" height="19.8036" fill="white" transform="translate(9.93945 12.1963)"/>
</clipPath>
<clipPath id="clip6_3_6587">
<rect width="17.6546" height="17.2579" fill="white" transform="translate(13.793)"/>
</clipPath>
<clipPath id="clip7_3_6587">
<rect width="17.6546" height="17.2579" fill="white" transform="translate(13.793)"/>
</clipPath>
<clipPath id="clip8_3_6587">
<rect width="13.2425" height="8.8273" fill="white" transform="translate(0.552734 2.20898)"/>
</clipPath>
<clipPath id="clip9_3_6587">
<rect width="13.2425" height="8.8273" fill="white" transform="translate(0.552734 2.20898)"/>
</clipPath>
</defs>
</svg>
