<svg width="32" height="32" viewBox="0 0 32 32" fill="none" xmlns="http://www.w3.org/2000/svg">
<g clip-path="url(#clip0_3_6582)">
<g clip-path="url(#clip1_3_6582)">
<path d="M6.34903 31.9998H25.6523C26.8009 31.9998 27.7572 31.1212 27.7572 30.0416V6.62831C27.7572 5.54842 26.8009 4.66064 25.6523 4.66064H22.4702V6.44842C22.4748 6.75874 22.23 7.01554 21.92 7.02586H10.0436C9.72729 7.01825 9.47186 6.76472 9.46153 6.44842V4.66064H6.34903C5.20039 4.66064 4.24414 5.54842 4.24414 6.62831V30.0416C4.24414 31.1212 5.20039 31.9998 6.34903 31.9998ZM10.6441 14.0519C10.6441 13.7446 10.8933 13.4954 11.2007 13.4954H14.0528V10.6433C14.0528 10.3359 14.302 10.0867 14.6094 10.0867H17.392C17.6993 10.0867 17.9485 10.3359 17.9485 10.6433V13.4954H20.8007C21.108 13.4954 21.3572 13.7446 21.3572 14.0519V16.8346C21.3572 17.1419 21.108 17.3911 20.8007 17.3911H17.9485V20.2433C17.9485 20.5506 17.6993 20.7998 17.392 20.7998H14.6094C14.302 20.7998 14.0528 20.5506 14.0528 20.2433V17.3911H11.2007C10.8933 17.3911 10.6441 17.1419 10.6441 16.8346V14.0519ZM10.8708 23.6519H21.1306C21.4382 23.6519 21.6871 23.9011 21.6871 24.2085C21.6871 24.5158 21.4382 24.765 21.1306 24.765H10.8708C10.5632 24.765 10.3142 24.5158 10.3142 24.2085C10.3142 23.9011 10.5632 23.6519 10.8708 23.6519ZM8.78381 26.4346H23.2175C23.5251 26.4346 23.774 26.6837 23.774 26.9911C23.774 27.2984 23.5251 27.5476 23.2175 27.5476H8.78381C8.47621 27.5476 8.22729 27.2984 8.22729 26.9911C8.22729 26.6837 8.47621 26.4346 8.78381 26.4346Z" fill="white"/>
<path d="M21.3568 2.15652H18.7525C18.4905 2.15625 18.2639 1.97337 18.2087 1.71712C17.9935 0.722556 17.0489 1.23676e-06 15.9625 1.23676e-06H15.9557C14.8984 -0.00108572 13.9748 0.714403 13.7117 1.73832C13.6484 1.98424 13.4267 2.15625 13.1726 2.15652H10.5742V5.91304H21.3568V2.15652Z" fill="white"/>
<path d="M15.1646 16.835V19.6872H16.8341V16.835C16.8341 16.5276 17.0833 16.2785 17.3906 16.2785H20.2428V14.6089H17.3906C17.0833 14.6089 16.8341 14.3597 16.8341 14.0524V11.2002H15.1646V14.0524C15.1646 14.3597 14.9154 14.6089 14.608 14.6089H11.7559V16.2785H14.608C14.9154 16.2785 15.1646 16.5276 15.1646 16.835Z" fill="white"/>
</g>
</g>
<defs>
<clipPath id="clip0_3_6582">
<rect width="32" height="32" fill="white"/>
</clipPath>
<clipPath id="clip1_3_6582">
<rect width="32" height="32" fill="white"/>
</clipPath>
</defs>
</svg>
